<?xml version="1.0" encoding="utf-8"?>
<!-- Generator: Adobe Illustrator 24.0.0, SVG Export Plug-In . SVG Version: 6.00 Build 0)  -->
<svg version="1.1" id="Layer_1" xmlns="http://www.w3.org/2000/svg" xmlns:xlink="http://www.w3.org/1999/xlink" x="0px" y="0px"
	 viewBox="0 0 476.42 136.36" style="enable-background:new 0 0 476.42 136.36;" xml:space="preserve">
<path d="M114.25,69.32c0,33.64-27.47,60.52-61.45,60.52H12.83V8.72H52.8C86.27,8.72,114.25,35.09,114.25,69.32z M93.29,69.32
	c0-22.57-16.14-42.26-40.49-42.26H33.02v84.44H52.8C75.45,111.49,93.29,93.15,93.29,69.32z"/>
<path d="M460.72,8.46l-41.16,57.31l46.15,64.07h-23.84l-34.23-47.5l-34.31,47.5h-23.75l46.15-64.07L354.48,8.46h23.83l29.33,40.65
	l29.33-40.65C436.97,8.46,460.72,8.46,460.72,8.46z"/>
<g>
	<path d="M151.31,67.05c1.99,0,2.99,0.7,2.99,2.1c0,0.24-0.03,0.51-0.09,0.8c-0.36,1.79-1.71,2.68-4.06,2.68l-20.62-0.27
		c-1.46-0.03-2.19-0.55-2.19-1.56c0-0.18,0.01-0.37,0.04-0.58c0.03-0.15,0.07-0.31,0.13-0.49c0.59-1.7,1.64-2.54,3.12-2.54
		C138.08,67.12,144.97,67.08,151.31,67.05z"/>
</g>
<g>
	<path d="M338.15,67.05c1.99,0,2.99,0.7,2.99,2.1c0,0.24-0.03,0.51-0.09,0.8c-0.36,1.79-1.71,2.68-4.06,2.68l-20.62-0.27
		c-1.46-0.03-2.19-0.55-2.19-1.56c0-0.18,0.01-0.37,0.04-0.58c0.03-0.15,0.07-0.31,0.13-0.49c0.59-1.7,1.64-2.54,3.12-2.54
		C324.92,67.12,331.81,67.08,338.15,67.05z"/>
</g>
<path d="M292.89,55.18c1.26,4.86,1.85,9.81,1.85,14.92c0,33.28-26.82,60.1-61.11,60.1c-33.11,0-61.11-25.57-61.11-60.1
	c0-33.36,26.66-60.19,61.11-60.19c13.08,0,25.15,3.6,35.63,10.73l-11.9,15.09c-7.04-5.03-14.92-7.54-23.72-7.54
	c-23.05,0-40.32,18.27-40.32,41.91c0,22.55,16.6,41.83,40.32,41.83c20.71,0,36.72-14.59,39.57-35.12c0.17-1.01,0.34-2.01,0.42-3.02
	h-39.99V55.18H292.89z"/>
</svg>
