<?xml version="1.0" encoding="utf-8"?>
<!-- Generator: Adobe Illustrator 23.0.6, SVG Export Plug-In . SVG Version: 6.00 Build 0)  -->
<svg version="1.1" id="Layer_1" xmlns="http://www.w3.org/2000/svg" xmlns:xlink="http://www.w3.org/1999/xlink" x="0px" y="0px"
	 viewBox="0 0 349.58 121.3" style="enable-background:new 0 0 349.58 121.3;" xml:space="preserve">
<style type="text/css">
	.st0{fill:#FFFFFF;}
	.st1{fill:#547DBF;}
	.st2{fill:#EA4435;}
	.st3{fill:#33A852;}
</style>
<path class="st1" d="M81.45,51.57c0,25.33-20.69,45.57-46.27,45.57H5.07V5.94h30.11C60.38,5.94,81.45,25.79,81.45,51.57z
	 M65.66,51.57c0-16.99-12.16-31.83-30.49-31.83H20.28v63.59h14.89C52.23,83.34,65.66,69.52,65.66,51.57z"/>
<path class="st2" d="M342.36,5.75l-31,43.16l34.75,48.25h-17.95l-25.78-35.77l-25.84,35.77h-17.89l34.75-48.25L262.35,5.75h17.95
	l22.09,30.61l22.09-30.61H342.36z"/>
<g>
	<path class="st1" d="M109.36,49.87c1.5,0,2.25,0.53,2.25,1.58c0,0.18-0.02,0.38-0.07,0.6c-0.27,1.34-1.29,2.02-3.06,2.02
		l-15.53-0.2c-1.1-0.02-1.65-0.41-1.65-1.18c0-0.13,0.01-0.28,0.03-0.44c0.02-0.11,0.06-0.24,0.1-0.37
		c0.45-1.28,1.23-1.92,2.35-1.92C99.4,49.92,104.58,49.89,109.36,49.87z"/>
</g>
<g>
	<path class="st3" d="M250.06,49.87c1.5,0,2.25,0.53,2.25,1.58c0,0.18-0.02,0.38-0.07,0.6c-0.27,1.34-1.29,2.02-3.06,2.02
		l-15.53-0.2c-1.1-0.02-1.65-0.41-1.65-1.18c0-0.13,0.01-0.28,0.03-0.44c0.02-0.11,0.06-0.24,0.1-0.37
		c0.45-1.28,1.23-1.92,2.35-1.92C240.1,49.92,245.29,49.89,250.06,49.87z"/>
</g>
<path class="st3" d="M215.98,40.93c0.95,3.66,1.39,7.39,1.39,11.24c0,25.06-20.2,45.26-46.02,45.26
	c-24.93,0-46.02-19.25-46.02-45.26c0-25.13,20.08-45.33,46.02-45.33c9.85,0,18.94,2.71,26.83,8.08l-8.96,11.36
	c-5.3-3.79-11.24-5.68-17.87-5.68c-17.36,0-30.36,13.76-30.36,31.56c0,16.98,12.5,31.5,30.36,31.5c15.59,0,27.65-10.98,29.8-26.45
	c0.13-0.76,0.25-1.52,0.32-2.27h-30.11V40.93H215.98z"/>
<path d="M12.03,112.49c-0.9,0.93-1.98,1.39-3.22,1.39H5.74l1.29-9.21h3.07c1.24,0,2.18,0.46,2.83,1.39c0.61,0.89,0.83,1.95,0.64,3.2
	C13.39,110.55,12.88,111.62,12.03,112.49z M12.5,106.43c-0.56-0.83-1.38-1.24-2.46-1.24H7.48l-1.15,8.16h2.55
	c0.95,0,1.82-0.35,2.6-1.06c0.85-0.75,1.37-1.76,1.55-3.03C13.19,108.15,13.01,107.2,12.5,106.43z"/>
<path d="M22.61,113.88l1.29-9.21h0.52l-1.29,9.21H22.61z"/>
<path d="M41.23,112.61c-1.02,0.94-2.27,1.41-3.73,1.41c-1.39,0-2.47-0.44-3.22-1.32c-0.75-0.89-1.03-2.03-0.84-3.42
	c0.19-1.37,0.8-2.5,1.82-3.39c1.01-0.89,2.21-1.34,3.59-1.34c1.64,0,2.85,0.63,3.62,1.9L42,106.76c-0.66-1.13-1.74-1.7-3.23-1.7
	c-1.21,0-2.27,0.4-3.19,1.2c-0.92,0.8-1.46,1.81-1.62,3.02c-0.17,1.23,0.09,2.24,0.77,3.02c0.69,0.79,1.64,1.19,2.85,1.19
	c1.29,0,2.39-0.43,3.31-1.3c0.69-0.64,1.14-1.38,1.35-2.22h-3.04l0.06-0.53h3.62C42.73,110.68,42.18,111.74,41.23,112.61z"/>
<path d="M52.07,113.88l1.29-9.21h0.52l-1.29,9.21H52.07z"/>
<path d="M67.93,104.65l-0.08,0.58h-2.01l-1.22,8.68h-0.57l1.23-8.69h-2.02l0.08-0.57H67.93z"/>
<path d="M81.49,113.88l-0.67-2.76h-4.13l-1.46,2.76h-0.58l5.02-9.51l2.35,9.51H81.49z M79.48,105.85l-2.5,4.75h3.7L79.48,105.85z"/>
<path d="M91.52,113.88l1.29-9.21h0.52l-1.21,8.68h2.59l-0.08,0.53H91.52z"/>
<path d="M124.89,112.61c-1.02,0.94-2.27,1.41-3.73,1.41c-1.39,0-2.47-0.44-3.22-1.32c-0.75-0.89-1.03-2.03-0.84-3.42
	c0.19-1.37,0.8-2.5,1.82-3.39c1.01-0.89,2.21-1.34,3.59-1.34c1.64,0,2.85,0.63,3.62,1.9l-0.48,0.32c-0.66-1.13-1.74-1.7-3.23-1.7
	c-1.21,0-2.27,0.4-3.19,1.2c-0.92,0.8-1.46,1.81-1.62,3.02c-0.17,1.23,0.09,2.24,0.77,3.02c0.69,0.79,1.64,1.19,2.85,1.19
	c1.29,0,2.39-0.43,3.31-1.3c0.69-0.64,1.14-1.38,1.35-2.22h-3.04l0.06-0.53h3.62C126.39,110.68,125.84,111.74,124.89,112.61z"/>
<path d="M140.3,113.38c-0.53,0.4-1.19,0.59-1.96,0.59c-0.76,0-1.35-0.2-1.78-0.61c-0.46-0.44-0.64-1.03-0.54-1.78l0.98-6.91h0.52
	l-0.98,6.91c-0.08,0.6,0.07,1.07,0.45,1.39c0.34,0.31,0.82,0.46,1.43,0.46c0.59,0,1.11-0.16,1.56-0.48c0.49-0.34,0.77-0.8,0.85-1.38
	l0.98-6.91h0.53l-0.98,6.91C141.26,112.34,140.91,112.93,140.3,113.38z"/>
<path d="M150.85,113.88l1.29-9.21h4.42l-0.08,0.53h-3.89l-0.46,3.35h3.9l-0.08,0.57h-3.9l-0.59,4.23h3.89l-0.08,0.53H150.85z"/>
<path d="M168.06,113.81c-0.34,0.12-0.75,0.18-1.21,0.18c-1.4,0-2.21-0.67-2.44-2l0.55-0.18c0.15,1.1,0.8,1.65,1.96,1.65
	c0.66,0,1.21-0.16,1.64-0.49c0.42-0.34,0.68-0.83,0.77-1.47c0.09-0.62-0.07-1.13-0.46-1.52c-0.21-0.21-0.67-0.49-1.39-0.84
	c-0.68-0.33-1.14-0.61-1.38-0.85c-0.4-0.39-0.55-0.9-0.45-1.53c0.09-0.64,0.4-1.15,0.9-1.53c0.5-0.4,1.07-0.59,1.73-0.59
	c1.08,0,1.79,0.4,2.13,1.21l-0.53,0.22c-0.07-0.14-0.15-0.26-0.23-0.37c-0.09-0.11-0.18-0.2-0.3-0.26
	c-0.28-0.19-0.65-0.28-1.13-0.28c-0.52,0-0.96,0.14-1.33,0.43c-0.41,0.3-0.65,0.7-0.71,1.19c-0.06,0.44,0.08,0.82,0.41,1.15
	c0.17,0.16,0.57,0.4,1.19,0.7c0.38,0.18,0.7,0.36,0.97,0.54c0.27,0.18,0.48,0.35,0.63,0.54c0.43,0.48,0.59,1.09,0.49,1.83
	C169.71,112.66,169.11,113.43,168.06,113.81z"/>
<path d="M184.57,104.65l-0.08,0.58h-2.01l-1.23,8.68h-0.57l1.23-8.69h-2.03l0.08-0.57H184.57z"/>
<path d="M205.37,113.88l1.29-9.21h4.42l-0.08,0.53h-3.89l-0.46,3.35h3.9l-0.08,0.57h-3.89l-0.59,4.23h3.89l-0.08,0.53H205.37z"/>
<path d="M224.8,113.88l-1.86-4.27l-3.02,4.27h-0.59l3.38-4.76l-1.94-4.45h0.61l1.72,3.99l2.84-3.99h0.61l-3.19,4.49l2.05,4.72H224.8
	z"/>
<path d="M240.17,108.63c-0.55,0.43-1.17,0.64-1.87,0.64h-1.73l-0.64,4.6h-0.52l1.29-9.21h2.24c0.7,0,1.27,0.21,1.7,0.62
	c0.42,0.42,0.58,0.98,0.48,1.66C241.03,107.66,240.71,108.22,240.17,108.63z M240.2,105.64c-0.32-0.29-0.77-0.44-1.34-0.44h-1.72
	l-0.49,3.55h1.72c0.58,0,1.07-0.15,1.48-0.46c0.42-0.32,0.67-0.76,0.75-1.33C240.67,106.4,240.54,105.96,240.2,105.64z"/>
<path d="M250.1,113.88l1.29-9.21h4.42l-0.08,0.53h-3.89l-0.46,3.35h3.9l-0.08,0.57h-3.89l-0.59,4.23h3.89l-0.08,0.53H250.1z"/>
<path d="M268.75,113.88l-2.28-4.6h-0.99l-0.64,4.6h-0.52l1.29-9.21h2.13c0.34,0,0.66,0.05,0.95,0.15c0.29,0.1,0.54,0.24,0.74,0.44
	c0.2,0.19,0.35,0.43,0.44,0.72c0.09,0.28,0.11,0.61,0.06,0.98c-0.05,0.4-0.16,0.75-0.33,1.04c-0.17,0.29-0.38,0.53-0.63,0.72
	c-0.25,0.19-0.54,0.33-0.86,0.42c-0.32,0.09-0.67,0.14-1.04,0.14l2.31,4.6H268.75z M269.34,106.18c-0.07-0.22-0.19-0.4-0.35-0.54
	c-0.16-0.14-0.35-0.25-0.59-0.32c-0.23-0.07-0.49-0.11-0.76-0.11h-1.6l-0.49,3.55h1.74c0.55,0,1.02-0.15,1.4-0.46
	c0.38-0.31,0.61-0.76,0.69-1.34C269.43,106.65,269.41,106.4,269.34,106.18z"/>
<path d="M279.27,113.88l1.29-9.21h0.52l-1.29,9.21H279.27z"/>
<path d="M289.61,113.88l1.29-9.21h4.42l-0.08,0.53h-3.89l-0.46,3.35h3.9l-0.08,0.57h-3.89l-0.59,4.23h3.89l-0.08,0.53H289.61z"/>
<path d="M305.44,106.07l-1.1,7.82h-0.52l1.3-9.27l5.75,8.06l1.12-8h0.53l-1.32,9.36L305.44,106.07z"/>
<path d="M328.82,113.34c-0.53,0.35-1.22,0.57-2.05,0.64c-0.09,0.01-0.2,0.02-0.31,0.02c-0.11,0-0.23,0.01-0.36,0.01
	c-1.39,0-2.47-0.44-3.22-1.32c-0.75-0.89-1.03-2.03-0.84-3.42c0.19-1.39,0.79-2.53,1.81-3.4c1-0.89,2.2-1.33,3.6-1.33
	c0.8,0,1.5,0.12,2.09,0.35c0.36,0.15,0.7,0.36,1.01,0.63l-0.09,0.66c-0.32-0.29-0.68-0.53-1.08-0.72c-0.3-0.13-0.62-0.23-0.95-0.3
	c-0.33-0.07-0.68-0.1-1.05-0.1c-1.23,0-2.29,0.4-3.19,1.19c-0.9,0.79-1.44,1.8-1.61,3.03c-0.17,1.23,0.08,2.24,0.76,3.02
	c0.67,0.79,1.62,1.19,2.85,1.19c0.77,0,1.46-0.14,2.06-0.41c0.16-0.08,0.36-0.18,0.58-0.31c0.22-0.13,0.48-0.29,0.76-0.48
	l-0.08,0.61L328.82,113.34z"/>
<path d="M338.82,113.88l1.29-9.21h4.42l-0.08,0.53h-3.89l-0.46,3.35h3.9l-0.08,0.57h-3.89l-0.59,4.23h3.89l-0.08,0.53H338.82z"/>
</svg>
