<?xml version="1.0" encoding="utf-8"?>
<!-- Generator: Adobe Illustrator 24.0.0, SVG Export Plug-In . SVG Version: 6.00 Build 0)  -->
<svg version="1.1" id="Layer_1" xmlns="http://www.w3.org/2000/svg" xmlns:xlink="http://www.w3.org/1999/xlink" x="0px" y="0px"
	 viewBox="0 0 476.42 136.36" style="enable-background:new 0 0 476.42 136.36;" xml:space="preserve">
<style type="text/css">
	.st0{fill:#547DBE;}
	.st1{fill:#E94434;}
	.st2{fill:#32A852;}
</style>
<path class="st0" d="M112.04,68.17c0,31.92-26.07,57.42-58.31,57.42H15.8V10.66h37.93C85.5,10.66,112.04,35.68,112.04,68.17z
	 M92.15,68.17c0-21.41-15.32-40.1-38.42-40.1H34.97v80.12h18.77C75.23,108.19,92.15,90.78,92.15,68.17z"/>
<path class="st1" d="M440.79,10.42L401.74,64.8l43.79,60.79h-22.62l-32.48-45.07l-32.56,45.07h-22.54l43.79-60.79l-39.14-54.38
	h22.62L390.43,49l27.83-38.57H440.79z"/>
<g>
	<path class="st0" d="M147.21,66.02c1.89,0,2.84,0.66,2.84,1.99c0,0.23-0.03,0.48-0.08,0.76c-0.34,1.69-1.62,2.54-3.85,2.54
		l-19.56-0.25c-1.38-0.03-2.08-0.52-2.08-1.48c0-0.17,0.01-0.35,0.04-0.55c0.03-0.14,0.07-0.3,0.13-0.47
		c0.56-1.61,1.55-2.41,2.96-2.41C134.66,66.09,141.19,66.04,147.21,66.02z"/>
</g>
<g>
	<path class="st2" d="M324.49,66.02c1.89,0,2.84,0.66,2.84,1.99c0,0.23-0.03,0.48-0.08,0.76c-0.34,1.69-1.62,2.54-3.85,2.54
		l-19.57-0.25c-1.38-0.03-2.08-0.52-2.08-1.48c0-0.17,0.01-0.35,0.04-0.55c0.03-0.14,0.07-0.3,0.13-0.47
		c0.56-1.61,1.55-2.41,2.96-2.41C311.94,66.09,318.48,66.04,324.49,66.02z"/>
</g>
<path class="st2" d="M281.55,54.75c1.19,4.61,1.75,9.31,1.75,14.16c0,31.58-25.45,57.03-57.99,57.03
	c-31.42,0-57.99-24.26-57.99-57.03c0-31.66,25.3-57.11,57.99-57.11c12.41,0,23.86,3.42,33.81,10.18l-11.3,14.32
	c-6.68-4.77-14.16-7.16-22.51-7.16c-21.87,0-38.26,17.34-38.26,39.77c0,21.4,15.75,39.69,38.26,39.69
	c19.65,0,34.84-13.84,37.54-33.33c0.16-0.95,0.32-1.91,0.4-2.86h-37.94V54.75H281.55z"/>
</svg>
