<?xml version="1.0" encoding="utf-8"?>
<!-- Generator: Adobe Illustrator 24.0.0, SVG Export Plug-In . SVG Version: 6.00 Build 0)  -->
<svg version="1.1" id="Layer_1" xmlns="http://www.w3.org/2000/svg" xmlns:xlink="http://www.w3.org/1999/xlink" x="0px" y="0px"
	 viewBox="0 0 476.42 136.36" style="enable-background:new 0 0 476.42 136.36;" xml:space="preserve">
<style type="text/css">
	.st0{fill:#FFFFFF;}
</style>
<path class="st0" d="M109.12,67.42c0,34.05-27.81,61.26-62.2,61.26H6.45V6.07h40.47C80.8,6.07,109.12,32.77,109.12,67.42z
	 M87.9,67.42c0-22.84-16.34-42.78-40.98-42.78H26.9v85.48h20.02C69.85,110.12,87.9,91.55,87.9,67.42z"/>
<path class="st0" d="M459.85,5.82l-41.67,58.01l46.72,64.85h-24.13L406.12,80.6l-34.74,48.08h-24.04l46.72-64.85L352.3,5.82h24.13
	l29.69,41.15l29.69-41.15H459.85z"/>
<g>
	<path class="st0" d="M146.64,65.13c2.02,0,3.03,0.71,3.03,2.12c0,0.24-0.03,0.51-0.09,0.81c-0.36,1.81-1.73,2.71-4.11,2.71
		l-20.87-0.27c-1.48-0.03-2.21-0.56-2.21-1.58c0-0.18,0.02-0.38,0.05-0.59c0.03-0.15,0.07-0.32,0.14-0.5
		c0.6-1.72,1.66-2.58,3.16-2.58C133.25,65.2,140.22,65.16,146.64,65.13z"/>
</g>
<g>
	<path class="st0" d="M335.77,65.13c2.02,0,3.03,0.71,3.03,2.12c0,0.24-0.03,0.51-0.09,0.81c-0.36,1.81-1.73,2.71-4.11,2.71
		l-20.87-0.27c-1.48-0.03-2.21-0.56-2.21-1.58c0-0.18,0.01-0.38,0.04-0.59c0.03-0.15,0.07-0.32,0.14-0.5
		c0.6-1.72,1.66-2.58,3.16-2.58C322.39,65.2,329.36,65.16,335.77,65.13z"/>
</g>
<path class="st0" d="M289.96,53.11c1.27,4.92,1.87,9.93,1.87,15.1c0,33.69-27.15,60.84-61.86,60.84
	c-33.52,0-61.86-25.88-61.86-60.84c0-33.77,26.99-60.93,61.86-60.93c13.24,0,25.46,3.65,36.07,10.86l-12.05,15.27
	c-7.13-5.09-15.1-7.64-24.02-7.64c-23.34,0-40.82,18.5-40.82,42.43c0,22.83,16.8,42.34,40.82,42.34c20.96,0,37.17-14.77,40.05-35.56
	c0.17-1.02,0.34-2.04,0.42-3.06h-40.48V53.11H289.96z"/>
</svg>
